<svg width="64" height="64" viewBox="0 0 64 64" fill="none" xmlns="http://www.w3.org/2000/svg">
<path d="M42.6667 24.0002H21.3333C20.6261 24.0002 19.9478 23.7192 19.4477 23.2191C18.9476 22.719 18.6667 22.0407 18.6667 21.3335V18.6668C18.6667 15.1306 20.0714 11.7392 22.5719 9.23874C25.0724 6.73825 28.4638 5.3335 32 5.3335C35.5362 5.3335 38.9276 6.73825 41.4281 9.23874C43.9286 11.7392 45.3333 15.1306 45.3333 18.6668V21.3335C45.3333 22.0407 45.0524 22.719 44.5523 23.2191C44.0522 23.7192 43.3739 24.0002 42.6667 24.0002ZM24 18.6668H40C40 16.5451 39.1571 14.5103 37.6568 13.01C36.1566 11.5097 34.1217 10.6668 32 10.6668C29.8783 10.6668 27.8434 11.5097 26.3431 13.01C24.8428 14.5103 24 16.5451 24 18.6668Z" fill="white"/>
<path d="M51.8667 20.1337C44.4267 14.6137 19.5733 14.6137 12.1333 20.1337C6.98667 24.0003 5.01334 32.8003 5.33334 40.0003C5.65334 47.2003 8.21334 52.7737 12.2933 55.227C16.3733 57.6803 24.16 58.667 32 58.667C39.84 58.667 47.7067 57.4937 51.6533 55.1203C55.6 52.747 58.2667 47.1203 58.6133 39.8937C58.96 32.667 57.0133 24.0003 51.8667 20.1337ZM38.6667 40.0003H34.6667V44.0003C34.6667 44.7076 34.3857 45.3858 33.8856 45.8859C33.3855 46.386 32.7072 46.667 32 46.667C31.2928 46.667 30.6145 46.386 30.1144 45.8859C29.6143 45.3858 29.3333 44.7076 29.3333 44.0003V40.0003H25.3333C24.6261 40.0003 23.9478 39.7194 23.4477 39.2193C22.9476 38.7192 22.6667 38.0409 22.6667 37.3337C22.6667 36.6264 22.9476 35.9481 23.4477 35.448C23.9478 34.9479 24.6261 34.667 25.3333 34.667H29.3333V30.667C29.3333 29.9597 29.6143 29.2815 30.1144 28.7814C30.6145 28.2813 31.2928 28.0003 32 28.0003C32.7072 28.0003 33.3855 28.2813 33.8856 28.7814C34.3857 29.2815 34.6667 29.9597 34.6667 30.667V34.667H38.6667C39.3739 34.667 40.0522 34.9479 40.5523 35.448C41.0524 35.9481 41.3333 36.6264 41.3333 37.3337C41.3333 38.0409 41.0524 38.7192 40.5523 39.2193C40.0522 39.7194 39.3739 40.0003 38.6667 40.0003Z" fill="white"/>
</svg>
