<svg width="64" height="64" viewBox="0 0 64 64" fill="none" xmlns="http://www.w3.org/2000/svg">
<g clip-path="url(#clip0_2050_708)">
<path d="M56.4509 11.8701C55.852 11.6323 55.23 11.4408 54.5887 11.3021C54.0799 6.93119 51.9619 3.54481 48.7836 2.11181C45.1671 0.480938 40.5766 1.55019 35.7661 5.12044C38.5202 6.93256 41.4286 7.92856 44.6209 8.15731L44.4924 9.95269C40.5675 9.67119 37.0411 8.33969 33.7125 5.88119L33.7137 5.87994C33.7035 5.87356 33.6932 5.86581 33.683 5.85806C30.1102 2.97931 26.576 1.42806 23.4608 1.37156C21.1385 1.33044 19.0835 2.10406 17.4475 3.62444L21.8505 5.84006C22.1537 5.99294 22.3452 6.30406 22.3452 6.64331C22.3452 6.98394 22.1537 7.29494 21.8505 7.44781L16.5786 10.1004L13.9248 15.3722C13.9158 15.3902 13.9055 15.4082 13.8953 15.4249C14.2281 18.5633 15.4285 22.9817 19.0205 27.6237C19.1375 27.7741 19.203 27.9566 19.2081 28.1468C19.2969 31.1168 19.473 33.9442 19.7325 36.5633H20.1822C20.3801 36.5633 20.5743 36.6288 20.731 36.7509C22.9389 38.4538 25.1469 40.1579 27.3547 41.8608C28.2801 42.5753 29.2068 43.2899 30.132 44.0044C30.826 42.2181 31.5341 40.1309 32.2461 37.7817C32.5186 36.8923 33.3231 36.2973 34.2471 36.2973C35.1763 36.2973 35.9795 36.8949 36.2455 37.7843C37.9548 43.4198 39.6165 47.4642 41.1934 49.8263L46.9175 47.0503C47.839 43.9414 48.5343 39.6362 48.9404 34.5289C49.5175 34.6844 50.1112 34.7988 50.7191 34.8644C51.1547 34.9146 51.5981 34.9389 52.0467 34.9389C58.6384 34.9389 64 29.5772 64 22.9857C64 17.9476 60.8694 13.6282 56.4509 11.8701ZM52.0467 33.1396C46.4485 33.1396 41.894 28.5849 41.894 22.9854C41.894 17.3859 46.4486 12.8288 52.0467 12.8288C57.6449 12.8288 62.1995 17.3861 62.1995 22.9854C62.1995 28.5848 57.6449 33.1396 52.0467 33.1396ZM59.493 21.0949V24.8772C59.493 25.3733 59.0908 25.7768 58.5934 25.7768H54.8381V29.5282C54.8381 30.0256 54.4346 30.4291 53.9372 30.4291H50.1562C49.6589 30.4291 49.2566 30.0256 49.2566 29.5282V25.7768H45.5039C45.0065 25.7768 44.6043 25.3733 44.6043 24.8772V21.0949C44.6043 20.5989 45.0065 20.1953 45.5039 20.1953H49.2566V16.4401C49.2566 15.9427 49.6589 15.5392 50.1562 15.5392H53.9372C54.4346 15.5392 54.8381 15.9427 54.8381 16.4401V20.1953H58.5934C59.0906 20.1953 59.493 20.5989 59.493 21.0949ZM10.7362 8.62631L6.79725 6.64331L10.7362 4.66031C10.9085 4.57419 11.0473 4.43406 11.1346 4.26194L13.1215 0.320312L15.1045 4.26056C15.1919 4.43406 15.332 4.57419 15.5041 4.66031L19.4445 6.64331L15.5041 8.62631C15.3319 8.71369 15.1917 8.85381 15.1045 9.02606L13.1215 12.9677L11.1348 9.02606C11.0473 8.85381 10.9085 8.71369 10.7362 8.62631ZM53.9115 49.8737C54.351 50.7797 54.4089 51.8078 54.076 52.7679C53.7431 53.7267 53.0594 54.4978 52.1534 54.9373C49.7411 56.1081 47.6077 57.1683 45.7262 58.1052C38.1104 61.8952 34.287 63.7984 30.5009 63.6738C26.6955 63.5504 22.5996 61.3862 14.4415 57.0744C13.0639 56.3457 11.5191 55.5297 9.8535 54.6596V38.3624H19.8752C22.0009 40.0036 24.1279 41.6447 26.2547 43.2859C28.5667 45.0684 30.8775 46.8509 33.1883 48.6348C34.5505 49.6848 35.0221 51.5021 34.3821 53.0699C34.3795 53.0777 34.377 53.0841 34.3731 53.0918C34.3512 53.1432 34.3295 53.1933 34.3064 53.2434C34.2819 53.2948 34.2575 53.3463 34.2305 53.3977C34.2279 53.4016 34.2266 53.4041 34.2254 53.4079C34.1239 53.5982 34.0069 53.7807 33.8732 53.9516C33.2576 54.7497 32.3631 55.2612 31.3544 55.3909C30.3469 55.5207 29.3534 55.2547 28.5566 54.6378L19.7044 47.8072L18.6042 49.2324L27.4565 56.0618C28.4396 56.8226 29.6246 57.2236 30.8533 57.2236C31.0961 57.2236 31.3404 57.2081 31.5859 57.1759C33.0703 56.9844 34.3888 56.2301 35.2986 55.0516C35.4335 54.8768 35.5583 54.6931 35.6714 54.5041L48.8444 48.1168C49.3765 47.8584 49.9394 47.7364 50.4946 47.7364C51.9028 47.7364 53.2574 48.5243 53.9115 49.8737ZM0 35.1432H8.05412V57.5218H0V35.1432Z" fill="white"/>
</g>
<defs>
<clipPath id="clip0_2050_708">
<rect width="64" height="64" fill="white"/>
</clipPath>
</defs>
</svg>
