<svg width="64" height="64" viewBox="0 0 64 64" fill="none" xmlns="http://www.w3.org/2000/svg">
<path fill-rule="evenodd" clip-rule="evenodd" d="M32 2.6665C30.396 2.6665 28.7894 3.14866 27.4123 4.11264L6.07898 19.046C3.94039 20.543 2.66669 22.9893 2.66669 25.5998V53.3332C2.66669 57.7513 6.24842 61.3332 10.6667 61.3332H21.3334C22.8061 61.3332 24 60.1393 24 58.6665V47.9998C24 45.0542 26.3878 42.6665 29.3334 42.6665H34.6667C37.6123 42.6665 40 45.0542 40 47.9998V58.6665C40 60.1393 41.1939 61.3332 42.6667 61.3332H53.3334C57.7518 61.3332 61.3334 57.7513 61.3334 53.3332V25.5998C61.3334 22.9893 60.0598 20.543 57.9211 19.046L36.5878 4.11264C35.2107 3.14866 33.604 2.6665 32 2.6665ZM33.3334 15.9998C34.0696 15.9998 34.6667 16.5968 34.6667 17.3332V21.3332H38.6667C39.403 21.3332 40 21.9301 40 22.6665V25.3332C40 26.0695 39.403 26.6665 38.6667 26.6665H34.6667V30.6665C34.6667 31.4028 34.0696 31.9998 33.3334 31.9998H30.6667C29.9304 31.9998 29.3334 31.4028 29.3334 30.6665V26.6665H25.3334C24.597 26.6665 24 26.0695 24 25.3332V22.6665C24 21.9301 24.597 21.3332 25.3334 21.3332H29.3334V17.3332C29.3334 16.5968 29.9304 15.9998 30.6667 15.9998H33.3334Z" fill="white"/>
</svg>
