<svg width="64" height="64" viewBox="0 0 64 64" fill="none" xmlns="http://www.w3.org/2000/svg">
<path d="M50 48.9333C50.126 50.0748 49.9925 51.23 49.6091 52.3126C49.2258 53.3952 48.6027 54.3772 47.7864 55.185C46.9701 55.9928 45.9817 56.6057 44.8952 56.9777C43.8087 57.3497 42.6521 57.4713 41.512 57.3333H22.4879C21.3478 57.4713 20.1912 57.3497 19.1047 56.9777C18.0182 56.6057 17.0298 55.9928 16.2135 55.185C15.3972 54.3772 14.7741 53.3952 14.3908 52.3126C14.0075 51.23 13.8739 50.0748 14 48.9333C13.8823 47.1646 14.1441 45.3912 14.768 43.7321C15.3919 42.073 16.3634 40.5664 17.6173 39.3135C18.8712 38.0606 20.3785 37.0904 22.0382 36.4678C23.6978 35.8453 25.4714 35.5848 27.24 35.7039H36.7599C38.5285 35.5848 40.3021 35.8453 41.9617 36.4678C43.6214 37.0904 45.1287 38.0606 46.3826 39.3135C47.6365 40.5664 48.608 42.073 49.2319 43.7321C49.8558 45.3912 50.1176 47.1646 50 48.9333ZM32.0213 30.6986C33.8688 30.6912 35.6727 30.1366 37.2053 29.1048C38.7379 28.073 39.9304 26.6103 40.6323 24.9013C41.3342 23.1923 41.514 21.3136 41.1491 19.5025C40.7841 17.6914 39.8907 16.029 38.5817 14.7252C37.2727 13.4214 35.6068 12.5347 33.7942 12.1769C31.9817 11.8192 30.1037 12.0065 28.3975 12.7152C26.6914 13.4239 25.2334 14.6223 24.2077 16.159C23.182 17.6956 22.6346 19.5017 22.6346 21.3493C22.6431 23.8327 23.6359 26.2115 25.3955 27.9641C27.1551 29.7167 29.5378 30.7 32.0213 30.6986ZM50.1066 23.8133H45.8133C45.6344 23.8143 45.4609 23.8753 45.3208 23.9865C45.1806 24.0976 45.0817 24.2526 45.0399 24.4266C44.4577 26.9273 43.1496 29.2002 41.2799 30.9599C41.182 31.0639 41.1136 31.1923 41.082 31.3316C41.0504 31.471 41.0567 31.6163 41.1003 31.7524C41.1438 31.8885 41.223 32.0104 41.3297 32.1055C41.4363 32.2006 41.5665 32.2655 41.7066 32.2933C43.7982 32.7459 45.7684 33.6419 47.4843 34.9208C49.2001 36.1996 50.6218 37.8316 51.6533 39.7066C51.7164 39.8514 51.8211 39.9742 51.9539 40.0597C52.0868 40.1451 52.242 40.1892 52.3999 40.1866H53.52C54.3936 40.2905 55.2795 40.1954 56.1112 39.9082C56.9428 39.6211 57.6987 39.1494 58.3221 38.5285C58.9455 37.9077 59.4203 37.1538 59.7109 36.3233C60.0015 35.4928 60.1003 34.6074 60 33.7333C60.0889 32.4099 59.8942 31.0827 59.4288 29.8406C58.9635 28.5986 58.2382 27.4702 57.3016 26.531C56.3649 25.5919 55.2385 24.8636 53.9977 24.3949C52.7569 23.9262 51.4303 23.7279 50.1066 23.8133ZM46.6933 6.6666C45.4317 6.66551 44.1925 6.99978 43.1026 7.63517C42.0127 8.27055 41.1112 9.18422 40.4906 10.2826C40.4045 10.4467 40.3845 10.6375 40.4346 10.8159C40.4732 10.9824 40.5732 11.1281 40.7146 11.2239C42.0455 12.3395 43.141 13.7089 43.9372 15.2523C44.7334 16.7957 45.2143 18.4821 45.352 20.2133C45.3615 20.386 45.4357 20.5488 45.5599 20.6693C45.7085 20.8129 45.9054 20.8956 46.1119 20.9013C46.3013 20.9173 46.496 20.9279 46.6933 20.9279C48.5852 20.9279 50.3996 20.1764 51.7373 18.8386C53.0751 17.5009 53.8266 15.6865 53.8266 13.7946C53.8266 11.9027 53.0751 10.0883 51.7373 8.75057C50.3996 7.41281 48.5852 6.66126 46.6933 6.66126V6.6666ZM3.99995 33.7333C3.89961 34.6074 3.99843 35.4928 4.289 36.3233C4.57958 37.1538 5.05437 37.9077 5.67779 38.5285C6.30121 39.1494 7.05709 39.6211 7.88875 39.9082C8.72041 40.1954 9.60628 40.2905 10.48 40.1866H11.6C11.7579 40.1892 11.9131 40.1451 12.046 40.0597C12.1788 39.9742 12.2835 39.8514 12.3466 39.7066C13.3781 37.8316 14.7998 36.1996 16.5156 34.9208C18.2315 33.6419 20.2017 32.7459 22.2933 32.2933C22.4334 32.2655 22.5636 32.2006 22.6702 32.1055C22.7769 32.0104 22.8561 31.8885 22.8996 31.7524C22.9432 31.6163 22.9495 31.471 22.9179 31.3316C22.8863 31.1923 22.8179 31.0639 22.72 30.9599C20.8503 29.2002 19.5422 26.9273 18.96 24.4266C18.9182 24.2526 18.8193 24.0976 18.6791 23.9865C18.539 23.8753 18.3655 23.8143 18.1866 23.8133H13.8933C12.5696 23.7279 11.243 23.9262 10.0022 24.3949C8.76138 24.8636 7.63496 25.5919 6.69833 26.531C5.76169 27.4702 5.03643 28.5986 4.57107 29.8406C4.10572 31.0827 3.911 32.4099 3.99995 33.7333ZM10.1866 13.7866C10.1852 15.6778 10.934 17.4924 12.2688 18.8322C13.6036 20.172 15.4154 20.9276 17.3066 20.9333C17.504 20.9333 17.6986 20.9333 17.888 20.9066C18.0945 20.901 18.2914 20.8182 18.44 20.6746C18.5642 20.5542 18.6384 20.3913 18.648 20.2186C18.7856 18.4874 19.2665 16.801 20.0627 15.2576C20.8589 13.7143 21.9544 12.3449 23.2853 11.2293C23.4267 11.1334 23.5267 10.9877 23.5653 10.8213C23.6154 10.6429 23.5954 10.452 23.5093 10.2879C22.7374 8.9131 21.5311 7.83326 20.0795 7.21766C18.628 6.60207 17.0132 6.48551 15.4882 6.88626C13.9633 7.28701 12.6145 8.18242 11.6531 9.43213C10.6917 10.6818 10.1722 12.2152 10.176 13.7919L10.1866 13.7866Z" fill="white"/>
</svg>
