<svg width="24" height="24" viewBox="0 0 24 24" fill="none" xmlns="http://www.w3.org/2000/svg">
<path d="M12.6667 7.3335C12.2987 7.3335 12 7.63216 12 8.00016C12 8.36816 12.2987 8.66683 12.6667 8.66683C14.1373 8.66683 15.3333 9.86283 15.3333 11.3335C15.3333 11.7015 15.632 12.0002 16 12.0002C16.368 12.0002 16.6667 11.7015 16.6667 11.3335C16.6667 9.12816 14.872 7.3335 12.6667 7.3335Z" fill="#94C5CC"/>
<path d="M12.6667 4.6665C12.2987 4.6665 12 4.96517 12 5.33317C12 5.70117 12.2987 5.99984 12.6667 5.99984C15.608 5.99984 18 8.39184 18 11.3332C18 11.7012 18.2987 11.9998 18.6667 11.9998C19.0347 11.9998 19.3333 11.7012 19.3333 11.3332C19.3333 7.65717 16.3427 4.6665 12.6667 4.6665Z" fill="#94C5CC"/>
<path d="M12.6667 2C12.2987 2 12 2.29867 12 2.66667C12 3.03467 12.2987 3.33333 12.6667 3.33333C17.0787 3.33333 20.6667 6.92133 20.6667 11.3333C20.6667 11.7013 20.9653 12 21.3333 12C21.7013 12 22 11.7013 22 11.3333C22 6.18667 17.8133 2 12.6667 2Z" fill="#94C5CC"/>
<path d="M20 16.6668C18.064 16.6668 16.22 16.2455 14.52 15.4148C14.3587 15.3362 14.176 15.3268 14.0093 15.3842C13.8427 15.4415 13.704 15.5642 13.6267 15.7242L12.18 18.7175C9.25467 17.1562 6.84667 14.7482 5.28533 11.8228L8.27733 10.3735C8.43733 10.2962 8.55867 10.1588 8.61733 9.99216C8.67467 9.82416 8.664 9.64016 8.58533 9.48016C7.75467 7.78016 7.33333 5.93616 7.33333 4.00016C7.33333 3.63216 7.03467 3.3335 6.66667 3.3335H2.66667C2.29867 3.3335 2 3.63216 2 4.00016C2 13.9255 10.0747 22.0002 20 22.0002C20.368 22.0002 20.6667 21.7015 20.6667 21.3335V17.3335C20.6667 16.9655 20.368 16.6668 20 16.6668ZM3.34667 4.66683H6.01467C6.092 6.33883 6.45867 7.94416 7.108 9.4575L4.704 10.6202C3.90667 8.7815 3.42933 6.77483 3.34667 4.66683ZM19.3333 20.6522C17.2253 20.5682 15.2187 20.0922 13.38 19.2935L14.5427 16.8908C16.056 17.5415 17.6613 17.9082 19.3333 17.9842V20.6522Z" fill="#94C5CC"/>
</svg>
