<svg width="26" height="26" viewBox="0 0 26 26" fill="none" xmlns="http://www.w3.org/2000/svg">
<path fill-rule="evenodd" clip-rule="evenodd" d="M20.0234 21.4392L20.0241 21.4374L20.043 21.3902L23.2917 5.01126V4.95806C23.2917 4.54996 23.1409 4.1937 22.8128 3.98C22.5256 3.79295 22.1954 3.77963 21.9639 3.7972C21.719 3.81578 21.4882 3.8769 21.3283 3.92778C21.2461 3.95395 21.1773 3.97917 21.1281 3.99824C21.1034 4.00781 21.0833 4.01594 21.0688 4.02199L21.0545 4.02801L2.94134 11.1335L2.93636 11.1353C2.92657 11.1389 2.91364 11.1437 2.89801 11.1498C2.86686 11.1619 2.82446 11.1793 2.77465 11.2018C2.67684 11.2462 2.54171 11.3146 2.40467 11.4084C2.17191 11.5678 1.7287 11.9452 1.80354 12.5434C1.86553 13.0389 2.20711 13.3536 2.43739 13.5166C2.56084 13.6039 2.67893 13.6669 2.76541 13.7081C2.80923 13.7289 2.84645 13.7449 2.87417 13.7562C2.88807 13.7619 2.89969 13.7664 2.90868 13.7698L2.92019 13.7741L2.92755 13.7768L6.09656 14.8437C6.08587 15.0425 6.10559 15.2452 6.15832 15.4453L7.74571 21.4669C7.93392 22.1809 8.57983 22.6782 9.3182 22.6777C9.98004 22.6772 10.567 22.2768 10.8164 21.6794L13.2947 19.0295L17.5511 22.2928L17.6116 22.3192C17.9983 22.4879 18.3596 22.5414 18.69 22.4963C19.0198 22.4512 19.282 22.3129 19.4789 22.1553C19.6726 22.0003 19.8055 21.8253 19.889 21.6936C19.9314 21.6267 19.963 21.5679 19.985 21.5236C19.996 21.5014 20.0047 21.4826 20.0112 21.4679L20.0193 21.449L20.0222 21.4421L20.0234 21.4392ZM7.72958 15.031C7.6935 14.8942 7.75014 14.7497 7.86962 14.6738L18.6185 7.84785C18.6185 7.84785 19.2507 7.46403 19.2281 7.84785C19.2281 7.84785 19.3409 7.91563 19.0021 8.23167C18.6808 8.53183 11.3412 15.618 10.5985 16.335C10.5556 16.3764 10.53 16.4239 10.5149 16.4815L9.31697 21.0526L7.72958 15.031Z" fill="#93AED1"/>
</svg>
