<svg width="24" height="24" viewBox="0 0 24 24" fill="none" xmlns="http://www.w3.org/2000/svg">
<g clip-path="url(#clip0_2050_723)">
<path d="M12 24C18.616 24 24 18.616 24 12C24 5.38401 18.6161 0 12 0C5.38394 0 0 5.38401 0 12C0 18.616 5.38401 24 12 24ZM12 1.59997C17.736 1.59997 22.4 6.26396 22.4 12C22.4 17.736 17.736 22.4 12 22.4C6.26396 22.4 1.59997 17.736 1.59997 12C1.59997 6.26396 6.26402 1.59997 12 1.59997Z" fill="#94C5CC"/>
<path d="M15.5 15.8243C15.648 15.9443 15.824 16.0003 16 16.0003C16.236 16.0003 16.468 15.8963 16.624 15.7003C16.9 15.3563 16.8439 14.8523 16.5 14.5763L12.8 11.6163V5.60028C12.8 5.16027 12.44 4.80029 12 4.80029C11.56 4.80029 11.2 5.16027 11.2 5.60028V12.0003C11.2 12.2443 11.312 12.4723 11.5 12.6243L15.5 15.8243Z" fill="#94C5CC"/>
</g>
<defs>
<clipPath id="clip0_2050_723">
<rect width="24" height="24" fill="white"/>
</clipPath>
</defs>
</svg>
