<svg width="26" height="26" viewBox="0 0 26 26" fill="none" xmlns="http://www.w3.org/2000/svg">
<path fill-rule="evenodd" clip-rule="evenodd" d="M21.3775 11.9377C21.6862 11.5185 21.93 11.1827 22.1109 10.9292C23.412 9.10916 23.9753 7.94673 23.8031 7.43973L23.7348 7.32056C23.6904 7.25015 23.5734 7.18406 23.386 7.12556C23.1975 7.06598 22.957 7.05623 22.6634 7.09523L19.4145 7.11906C19.3397 7.11148 19.2639 7.11365 19.1891 7.12556C19.1133 7.13748 19.0646 7.1494 19.0418 7.16023C19.0201 7.17323 19.0017 7.18298 18.9855 7.19056L18.9411 7.22631C18.9031 7.24906 18.862 7.29131 18.8176 7.3509C18.771 7.4094 18.7341 7.47873 18.7038 7.5589C18.3506 8.51549 17.9476 9.40599 17.497 10.2282C17.2186 10.719 16.9629 11.1447 16.73 11.5044C16.497 11.8652 16.301 12.1295 16.1428 12.2996C15.9857 12.4697 15.8427 12.6062 15.7149 12.7091C15.586 12.812 15.4885 12.8553 15.4213 12.8402C15.3541 12.8239 15.2891 12.8088 15.2295 12.7914C15.1245 12.721 15.04 12.6246 14.976 12.5011C14.911 12.3798 14.8688 12.2248 14.846 12.0385C14.8233 11.8532 14.8103 11.6918 14.806 11.5575C14.8027 11.4232 14.8049 11.2336 14.8125 10.9877C14.82 10.7428 14.8233 10.5771 14.8233 10.4893C14.8233 10.1892 14.8287 9.86208 14.8406 9.50999C14.8515 9.15899 14.8612 8.87949 14.8688 8.67365C14.8764 8.4689 14.8796 8.25007 14.8796 8.02148C14.8796 7.79182 14.8666 7.61198 14.8406 7.4809C14.8135 7.3509 14.7745 7.22415 14.7215 7.10173C14.6684 6.97931 14.5915 6.88398 14.4907 6.81681C14.3889 6.74965 14.2621 6.69548 14.1126 6.65648C13.714 6.56115 13.2059 6.51023 12.5894 6.50156C11.1909 6.48639 10.2917 6.58173 9.8941 6.78648C9.73594 6.87423 9.59294 6.9934 9.4651 7.1429C9.32968 7.31731 9.31019 7.41265 9.40769 7.42782C9.86052 7.49932 10.179 7.6694 10.3675 7.93807L10.4347 8.07998C10.4878 8.18398 10.5398 8.36599 10.5929 8.62707C10.6449 8.88707 10.6795 9.17632 10.6947 9.49266C10.7326 10.0712 10.7326 10.5652 10.6947 10.9768C10.6568 11.3874 10.6221 11.7081 10.5874 11.9377C10.5528 12.1663 10.5029 12.3527 10.4358 12.4946C10.3675 12.6387 10.322 12.7253 10.2993 12.7568C10.2765 12.7882 10.2581 12.8077 10.2429 12.8163C10.1454 12.8553 10.0436 12.8748 9.93852 12.8748C9.83344 12.8748 9.7056 12.8196 9.55502 12.708C9.40444 12.5986 9.24844 12.4458 9.08702 12.2519C8.9256 12.058 8.74252 11.7872 8.53993 11.4383C8.33735 11.0906 8.1261 10.6789 7.90835 10.2044L7.72743 9.85991C7.61585 9.63891 7.46093 9.31716 7.26593 8.89357C7.06984 8.46999 6.89651 8.06048 6.74701 7.66507C6.68634 7.49932 6.59534 7.37257 6.47617 7.28481L6.41876 7.24906C6.38192 7.21765 6.32126 7.18406 6.23892 7.1494C6.15659 7.11256 6.06992 7.08765 5.97892 7.0714L2.88816 7.09523C2.57182 7.09523 2.35841 7.17106 2.24466 7.32056L2.20024 7.39207C2.17749 7.43215 2.16666 7.49498 2.16666 7.58165C2.16666 7.6694 2.18941 7.77557 2.23491 7.90232C2.68558 9.01815 3.17633 10.0939 3.70608 11.1307C4.23691 12.1663 4.69733 13.0016 5.08842 13.6343C5.4795 14.268 5.87709 14.8649 6.28442 15.4272C6.69067 15.9894 6.95934 16.348 7.09043 16.5062C7.22259 16.6654 7.32551 16.7835 7.40026 16.8626L7.68301 17.1486C7.86285 17.3382 8.12826 17.5657 8.47818 17.83C8.82702 18.0954 9.21485 18.3565 9.6406 18.6133C10.0642 18.8711 10.5593 19.0802 11.1237 19.2427C11.687 19.4052 12.2363 19.4702 12.7704 19.4388H14.0671C14.3315 19.4149 14.5308 19.3283 14.6651 19.1777L14.7106 19.1181C14.741 19.0715 14.7691 18.9979 14.7951 18.8993C14.8211 18.7996 14.8352 18.6913 14.8352 18.5732C14.8276 18.233 14.8515 17.9254 14.9078 17.6524C14.9652 17.3794 15.028 17.1746 15.0995 17.0349C15.171 16.8973 15.2523 16.7803 15.3433 16.6849C15.4332 16.5896 15.496 16.5333 15.535 16.5138C15.5719 16.4943 15.6022 16.4802 15.625 16.4715C15.8048 16.4087 16.0171 16.4694 16.262 16.6557C16.5068 16.842 16.7365 17.0706 16.9499 17.3436C17.1644 17.6177 17.4222 17.9232 17.7234 18.2634C18.0235 18.6046 18.2867 18.857 18.5121 19.0239L18.7385 19.1658C18.888 19.2611 19.0841 19.3478 19.3256 19.4269C19.5651 19.5059 19.7763 19.5265 19.9572 19.4864L22.8454 19.4388C23.1303 19.4388 23.3524 19.3889 23.5106 19.2904C23.6677 19.1918 23.7619 19.0824 23.7922 18.9643C23.8226 18.8451 23.8237 18.7119 23.7977 18.5602C23.7717 18.4107 23.7446 18.3056 23.7197 18.2471C23.6926 18.1875 23.6677 18.1377 23.6449 18.0976C23.2701 17.3869 22.5507 16.5116 21.4902 15.4759L21.4674 15.4521L21.4566 15.4391L21.4457 15.4283H21.4338C20.9528 14.9451 20.6484 14.6212 20.5206 14.4543C20.2876 14.1391 20.2346 13.8173 20.3635 13.4934C20.4523 13.2475 20.7903 12.7286 21.3775 11.9377" fill="#93AED1"/>
</svg>
