<svg width="22" height="22" viewBox="0 0 22 22" fill="none" xmlns="http://www.w3.org/2000/svg">
<path d="M8.70934 6.0424L8.70964 6.04307C8.85159 6.35938 9.08698 6.93264 9.27505 7.39064L9.27842 7.39885C9.3526 7.57951 9.41956 7.74257 9.47178 7.86807C9.49792 7.93088 9.5198 7.98293 9.53673 8.02238C9.55577 8.06674 9.56331 8.0828 9.56309 8.08236M8.70934 6.0424L9.58706 9.01123C9.77411 8.62789 9.66859 8.29242 9.56309 8.08236M8.70934 6.0424C8.58054 5.75649 8.4156 5.53582 8.18663 5.4031M8.70934 6.0424L8.18663 5.4031M9.56309 8.08236L9.11696 8.30633L9.56303 8.08224C9.56305 8.08228 9.56307 8.08232 9.56309 8.08236ZM5.93178 5.81924L5.93179 5.81923L5.93178 5.81924ZM5.93178 5.81924C5.6154 6.15361 4.87023 6.94491 4.87023 8.42942C4.87023 9.2152 5.15186 9.96018 5.43205 10.5139C5.71562 11.0743 6.01993 11.4815 6.10519 11.5956L6.10524 11.5956L6.10528 11.5957L5.93178 5.81924ZM8.18663 5.4031C7.96746 5.27606 7.75239 5.27067 7.65055 5.26812M8.18663 5.4031L7.65055 5.26812M7.65055 5.26812C7.64735 5.26804 7.64427 5.26796 7.64129 5.26788M7.65055 5.26812L7.64129 5.26788M7.64129 5.26788C7.47264 5.26235 7.27899 5.26235 7.09583 5.26235H7.09053C6.78852 5.26235 6.3464 5.37288 5.97903 5.76901L7.64129 5.26788ZM6.16022 11.6756L6.15454 11.6672L6.12116 11.618L6.11184 11.6046C6.11101 11.6034 6.11046 11.6026 6.11017 11.6022C6.11 11.602 6.10991 11.6019 6.10991 11.6019L6.16022 11.6756ZM6.16022 11.6756C6.52102 12.209 8.32594 14.8772 11.0981 15.9674L6.16022 11.6756ZM6.12288 19.9004C6.01138 19.84 5.88108 19.8242 5.75838 19.8563L0.878916 21.1308L2.18138 16.403C2.21699 16.2738 2.1992 16.1356 2.13201 16.0196C1.231 14.4639 0.757124 12.6998 0.757767 10.9045V10.9043C0.757767 5.26206 5.37616 0.666992 11.0455 0.666992C13.8019 0.666992 16.3814 1.73479 18.3241 3.66835C20.2661 5.6014 21.3333 8.17287 21.3333 10.9096C21.3333 16.5517 16.7149 21.1468 11.0456 21.1468H11.0402C9.31769 21.1468 7.62564 20.7144 6.12288 19.9004ZM9.55746 9.07239L9.58702 9.01132L17.1078 13.2947C17.0181 13.1437 16.8893 13.0525 16.7994 12.9976C16.7132 12.9449 16.6116 12.8962 16.5251 12.8548L16.5125 12.8487C16.4644 12.8257 16.416 12.8025 16.3647 12.7769L16.3647 12.7769C16.2231 12.7065 15.8085 12.5028 15.3969 12.3047C14.9996 12.1134 14.565 11.9076 14.409 11.8494L14.4089 11.8493L14.4057 11.8482C14.2873 11.8039 14.0698 11.7228 13.834 11.7506C13.5437 11.7848 13.3362 11.9597 13.1915 12.1786C13.032 12.4133 12.5689 12.9567 12.3747 13.1827C12.3645 13.1782 12.3529 13.1728 12.34 13.1663C12.2822 13.1376 12.2096 13.1063 12.1413 13.0768L12.1321 13.0728L12.1309 13.0723C11.7554 12.9103 11.0371 12.6004 10.2044 11.859L10.2035 11.8582C9.47802 11.2153 8.96522 10.4179 8.78107 10.1085C8.78498 10.1046 8.78915 10.1004 8.79361 10.096L8.79386 10.0958C8.88972 10.0003 8.99423 9.87395 9.0794 9.77101L9.08863 9.75985C9.14196 9.69541 9.19043 9.63688 9.23603 9.58455L9.23613 9.58443C9.40329 9.39245 9.47957 9.23409 9.55352 9.08059L9.55746 9.0724L9.55746 9.07239ZM12.1173 13.614C12.396 13.7526 12.5621 13.7313 12.7228 13.5446L12.1173 13.614ZM14.5436 16.7085C14.5945 16.7023 14.6362 16.6973 14.6771 16.6934L11.0983 15.9675C12.1799 16.3932 12.8989 16.5985 13.4226 16.6864C13.9647 16.7773 14.2856 16.7397 14.5436 16.7085Z" fill="#93AED1" stroke="#93AED1" stroke-linejoin="round"/>
</svg>
