<svg width="26" height="26" viewBox="0 0 26 26" fill="none" xmlns="http://www.w3.org/2000/svg">
<g clip-path="url(#clip0_2073_192)">
<path d="M13.0027 2H12.9973C6.93213 2 2 6.9335 2 13C2 15.4062 2.7755 17.6365 4.09413 19.4474L2.72325 23.5339L6.95138 22.1823C8.69075 23.3345 10.7656 24 13.0027 24C19.0679 24 24 19.0651 24 13C24 6.93488 19.0679 2 13.0027 2Z" fill="#93AED1"/>
<path d="M19.4034 17.5335C19.138 18.2829 18.0847 18.9044 17.2446 19.0859C16.6699 19.2083 15.9191 19.3059 13.3919 18.2581C10.1592 16.9189 8.0775 13.634 7.91525 13.4209C7.75987 13.2077 6.609 11.6815 6.609 10.103C6.609 8.5245 7.41062 7.75588 7.73375 7.42588C7.99912 7.155 8.43775 7.03125 8.8585 7.03125C8.99462 7.03125 9.117 7.03813 9.227 7.04363C9.55012 7.05738 9.71237 7.07663 9.9255 7.58675C10.1909 8.22613 10.8371 9.80463 10.9141 9.96688C10.9925 10.1291 11.0709 10.3491 10.9609 10.5623C10.8577 10.7823 10.767 10.8799 10.6047 11.0669C10.4425 11.2539 10.2885 11.3969 10.1262 11.5976C9.97775 11.7723 9.81 11.9593 9.997 12.2824C10.184 12.5986 10.8302 13.6532 11.7817 14.5002C13.0096 15.5934 14.0051 15.9426 14.3612 16.0911C14.6266 16.2011 14.9429 16.175 15.1367 15.9688C15.3829 15.7034 15.6867 15.2634 15.9961 14.8303C16.2161 14.5195 16.4939 14.481 16.7854 14.591C17.0824 14.6941 18.654 15.471 18.9771 15.6319C19.3002 15.7941 19.5134 15.8711 19.5917 16.0073C19.6687 16.1434 19.6687 16.7828 19.4034 17.5335Z" fill="#FAFAFA"/>
</g>
<defs>
<clipPath id="clip0_2073_192">
<rect width="22" height="22" fill="white" transform="translate(2 2)"/>
</clipPath>
</defs>
</svg>
