<svg width="26" height="26" viewBox="0 0 26 26" fill="none" xmlns="http://www.w3.org/2000/svg">
<path fill-rule="evenodd" clip-rule="evenodd" d="M7.57129 5.29797C11.1849 5.01526 14.8151 5.01526 18.4288 5.29797L20.8562 5.48788C22.2083 5.59366 23.3144 6.60701 23.5379 7.94468C24.0971 11.2916 24.0971 14.7082 23.5379 18.0551C23.3144 19.3928 22.2083 20.4062 20.8562 20.5119L18.4288 20.7018C14.8151 20.9846 11.1849 20.9846 7.57129 20.7018L5.14386 20.5119C3.79178 20.4062 2.68568 19.3928 2.46217 18.0551C1.90295 14.7082 1.90295 11.2916 2.46217 7.94468C2.68568 6.60701 3.79178 5.59366 5.14386 5.48788L7.57129 5.29797ZM10.8333 15.6759V10.3239C10.8333 10.0713 11.1089 9.91526 11.3255 10.0452L15.7855 12.7212C15.9959 12.8475 15.9959 13.1524 15.7855 13.2786L11.3255 15.9546C11.1089 16.0846 10.8333 15.9285 10.8333 15.6759Z" fill="#93AED1"/>
</svg>
