<svg width="64" height="64" viewBox="0 0 64 64" fill="none" xmlns="http://www.w3.org/2000/svg">
<mask id="mask0_2050_583" style="mask-type:luminance" maskUnits="userSpaceOnUse" x="0" y="0" width="64" height="64">
<path d="M63.9206 0.342529H0.710693V63.5524H63.9206V0.342529Z" fill="white"/>
</mask>
<g mask="url(#mask0_2050_583)">
<path d="M62.7354 31.9473C62.7354 15.147 49.116 1.52759 32.3156 1.52759C15.5153 1.52759 1.89587 15.147 1.89587 31.9473C1.89587 48.7477 15.5153 62.3671 32.3156 62.3671C49.116 62.3671 62.7354 48.7477 62.7354 31.9473Z" fill="url(#paint0_linear_2050_583)"/>
<path d="M62.7354 31.9473C62.7354 15.147 49.116 1.52759 32.3156 1.52759C15.5153 1.52759 1.89587 15.147 1.89587 31.9473C1.89587 48.7477 15.5153 62.3671 32.3156 62.3671C49.116 62.3671 62.7354 48.7477 62.7354 31.9473Z" stroke="url(#paint1_linear_2050_583)" stroke-width="0.790123"/>
</g>
<path d="M41.4823 25.6199C39.8796 22.8695 36.0876 22.7532 33.5773 23.9843C33.265 24.138 32.9345 24.2514 32.5936 24.3218C32.488 24.3406 32.3911 24.3926 32.3169 24.4701C32.2427 24.5477 32.1952 24.6468 32.1811 24.7532C32.167 24.8596 32.1871 24.9677 32.2386 25.0619C32.29 25.1561 32.3701 25.2315 32.4672 25.2771C32.5028 25.2924 32.5396 25.3047 32.5772 25.314C32.6703 25.3275 32.7558 25.3731 32.8187 25.4431C32.8817 25.513 32.9181 25.6028 32.9218 25.6968C32.9202 25.7963 32.8795 25.8912 32.8086 25.961C32.7376 26.0308 32.6421 26.0699 32.5426 26.0699H32.5046C31.7184 25.9915 31.3478 25.4703 30.9878 24.9652C30.73 24.5538 30.3704 24.216 29.9438 23.9843C27.4625 22.691 23.6389 22.8695 22.0362 25.6199C19.9354 29.2274 22.0362 34.473 24.1218 38.179C26.2074 41.8851 25.4793 48.2228 28.4421 47.7247C30.6061 47.3582 29.4458 37.2512 31.7589 37.2512C34.072 37.2512 32.9142 47.3582 35.0781 47.7247C38.041 48.2228 37.3154 41.8825 39.3985 38.179C41.4816 34.4755 43.5856 29.2274 41.4823 25.6199ZM39.3785 27.8334L38.7597 28.1719C38.5249 28.3003 38.3319 28.4933 38.2035 28.7281L37.865 29.3475C37.8495 29.3759 37.8266 29.3996 37.7987 29.4161C37.7708 29.4327 37.739 29.4414 37.7066 29.4414C37.6742 29.4414 37.6424 29.4327 37.6146 29.4161C37.5867 29.3996 37.5638 29.3759 37.5483 29.3475L37.2098 28.7281C37.0814 28.4933 36.8883 28.3003 36.6536 28.1719L36.0347 27.8334C36.0063 27.8179 35.9826 27.795 35.9661 27.7671C35.9495 27.7393 35.9408 27.7075 35.9408 27.6751C35.9408 27.6427 35.9495 27.6109 35.9661 27.583C35.9826 27.5551 36.0063 27.5322 36.0347 27.5167L36.6536 27.1782C36.8883 27.0498 37.0814 26.8568 37.2098 26.622L37.5483 26.0032C37.5638 25.9747 37.5867 25.951 37.6146 25.9345C37.6424 25.918 37.6742 25.9092 37.7066 25.9092C37.739 25.9092 37.7708 25.918 37.7987 25.9345C37.8266 25.951 37.8495 25.9747 37.865 26.0032L38.2035 26.622C38.3319 26.8568 38.5249 27.0498 38.7597 27.1782L39.3785 27.5167C39.407 27.5322 39.4307 27.5551 39.4472 27.583C39.4637 27.6109 39.4724 27.6427 39.4724 27.6751C39.4724 27.7075 39.4637 27.7393 39.4472 27.7671C39.4307 27.795 39.407 27.8179 39.3785 27.8334Z" fill="white"/>
<path d="M41.7607 16.7042L41.2789 17.5852C41.096 17.9189 40.8213 18.1934 40.4874 18.3759L39.6061 18.8578C39.5657 18.8799 39.5319 18.9126 39.5084 18.9523C39.4849 18.992 39.4725 19.0373 39.4725 19.0834C39.4725 19.1295 39.4849 19.1748 39.5084 19.2145C39.5319 19.2542 39.5657 19.2868 39.6061 19.309L40.4874 19.7916C40.8214 19.9744 41.096 20.2491 41.2789 20.5831L41.7607 21.4641C41.7828 21.5046 41.8155 21.5384 41.8552 21.562C41.8949 21.5855 41.9402 21.598 41.9863 21.598C42.0325 21.598 42.0778 21.5855 42.1175 21.562C42.1572 21.5384 42.1898 21.5046 42.212 21.4641L42.6938 20.5831C42.8766 20.249 43.1512 19.9744 43.4853 19.7916L44.3663 19.3098C44.4068 19.2876 44.4406 19.255 44.4642 19.2153C44.4877 19.1756 44.5002 19.1303 44.5002 19.0841C44.5002 19.038 44.4877 18.9927 44.4642 18.953C44.4406 18.9133 44.4068 18.8806 44.3663 18.8585L43.4853 18.3759C43.1512 18.1932 42.8765 17.9185 42.6938 17.5844L42.212 16.7042C42.1898 16.6636 42.1572 16.6298 42.1175 16.6063C42.0778 16.5827 42.0325 16.5703 41.9863 16.5703C41.9402 16.5703 41.8949 16.5827 41.8552 16.6063C41.8155 16.6298 41.7828 16.6636 41.7607 16.7042Z" fill="white"/>
<path d="M45.9612 24.4988L45.6227 25.1177C45.4943 25.3524 45.3013 25.5455 45.0665 25.6738L44.4479 26.0108C44.4194 26.0263 44.3956 26.0492 44.3791 26.0771C44.3625 26.105 44.3538 26.1369 44.3538 26.1693C44.3538 26.2018 44.3625 26.2336 44.3791 26.2615C44.3956 26.2894 44.4194 26.3123 44.4479 26.3278L45.0668 26.6663C45.3016 26.7946 45.4946 26.9876 45.6229 27.2225L45.9614 27.8413C45.977 27.8697 45.9999 27.8935 46.0278 27.91C46.0557 27.9265 46.0875 27.9352 46.1199 27.9352C46.1523 27.9352 46.1842 27.9265 46.212 27.91C46.2399 27.8935 46.2629 27.8697 46.2784 27.8413L46.6169 27.2242C46.7453 26.9895 46.9383 26.7964 47.1731 26.6681L47.7919 26.3296C47.8204 26.3141 47.8442 26.2912 47.8608 26.2633C47.8774 26.2354 47.8861 26.2035 47.8861 26.1711C47.8861 26.1386 47.8774 26.1068 47.8608 26.0789C47.8442 26.051 47.8204 26.0281 47.7919 26.0126L47.1731 25.6736C46.9384 25.5451 46.7454 25.3521 46.6169 25.1174L46.2784 24.4986C46.2629 24.47 46.24 24.4462 46.212 24.4296C46.1841 24.413 46.1522 24.4043 46.1197 24.4043C46.0872 24.4043 46.0554 24.4131 46.0275 24.4298C45.9995 24.4464 45.9766 24.4702 45.9612 24.4988Z" fill="white"/>
<defs>
<linearGradient id="paint0_linear_2050_583" x1="8.00006" y1="1.99927" x2="58.9094" y2="19.0575" gradientUnits="userSpaceOnUse">
<stop stop-color="#ABDDE5"/>
<stop offset="1" stop-color="#91C3CA"/>
</linearGradient>
<linearGradient id="paint1_linear_2050_583" x1="32.3156" y1="1.52759" x2="107.239" y2="25.9385" gradientUnits="userSpaceOnUse">
<stop stop-color="#ABDDE5"/>
<stop offset="1" stop-color="#78A7AE"/>
</linearGradient>
</defs>
</svg>
