<svg width="64" height="64" viewBox="0 0 64 64" fill="none" xmlns="http://www.w3.org/2000/svg">
<mask id="mask0_2050_599" style="mask-type:luminance" maskUnits="userSpaceOnUse" x="0" y="0" width="64" height="64">
<path d="M63.9205 0.342529H0.710663V63.5524H63.9205V0.342529Z" fill="white"/>
</mask>
<g mask="url(#mask0_2050_599)">
<path d="M62.7354 31.9473C62.7354 15.147 49.116 1.52759 32.3156 1.52759C15.5152 1.52759 1.89584 15.147 1.89584 31.9473C1.89584 48.7477 15.5152 62.3671 32.3156 62.3671C49.116 62.3671 62.7354 48.7477 62.7354 31.9473Z" fill="url(#paint0_linear_2050_599)"/>
<g clip-path="url(#clip0_2050_599)">
<path d="M25.9624 36.428H19.4827V34.2783H25.9624V36.428ZM29.3737 32.5163C29.5797 32.5828 29.7509 32.5466 29.9286 32.3988C30.6918 31.7631 30.1637 31.1076 30.726 29.0881C31.0923 27.772 32.9652 27.7741 33.3309 29.0881C33.8928 31.1063 33.3654 31.7634 34.1291 32.3989L34.1291 32.3988C34.2689 32.5152 34.6943 32.8692 35.5484 31.8619C36.6508 30.562 37.5126 28.0823 37.8033 26.0576H36.2949C35.6757 26.0576 35.6751 25.1205 36.2949 25.1205H37.9018C38.0104 23.4294 37.6939 22.1287 36.9987 21.528C36.2581 20.8878 35.2387 20.6694 34.2719 20.9443C32.1506 21.5476 31.8717 21.5373 29.7849 20.9443C28.8183 20.6694 27.7989 20.8876 27.0582 21.5279C24.7061 23.5618 27.2947 31.8456 29.3737 32.5163ZM22.1468 22.1611C22.1468 20.4008 19.4827 20.4008 19.4827 22.1611C19.4827 23.9215 22.1468 23.9215 22.1468 22.1611ZM47.6175 40.456C47.6175 41.3081 46.924 42.0016 46.0718 42.0016H36.9186C36.2364 43.8696 36.2232 45.4409 36.8792 46.7878H37.374C38.2562 46.7878 38.9734 47.5057 38.9734 48.3872C38.9734 49.2694 38.2562 49.9866 37.374 49.9866H26.6133C25.7312 49.9866 25.0139 49.2694 25.0139 48.3872C25.0139 47.5057 25.7312 46.7878 26.6133 46.7878H27.1081C27.7641 45.4409 27.751 43.8696 27.0688 42.0016H17.9155C17.0634 42.0016 16.3699 41.3081 16.3699 40.456C16.3699 39.5846 16.3698 20.7163 16.3698 19.545C16.3698 18.6927 17.0632 17.9993 17.9155 17.9993H46.0718C46.9242 17.9993 47.6175 18.6927 47.6175 19.545C47.6175 20.7695 47.6175 39.6181 47.6175 40.456ZM39.5285 34.5356H44.9732C45.5924 34.5356 45.593 33.5984 44.9732 33.5984H39.5285C38.9093 33.5984 38.9087 34.5356 39.5285 34.5356ZM39.5285 32.6492H44.9732C45.5924 32.6492 45.593 31.7121 44.9732 31.7121H39.5285C38.9093 31.7121 38.9087 32.6492 39.5285 32.6492ZM44.9732 29.8257H41.5649C40.9457 29.8257 40.9451 30.7628 41.5649 30.7628H44.9732C45.5924 30.7628 45.593 29.8257 44.9732 29.8257ZM29.086 33.4082C29.602 33.5746 30.1004 33.4748 30.5281 33.1191C31.6756 32.1635 31.0972 31.2485 31.6288 29.3394C31.7411 28.936 32.3158 28.9361 32.4281 29.3394C32.9602 31.2505 32.3803 32.1628 33.5297 33.1192C33.5297 33.1192 33.5297 33.1192 33.5297 33.1192C34.4482 33.8834 35.4677 33.4061 36.2632 32.468C37.5696 30.9273 38.4658 28.1782 38.7494 26.0576H41.7823V27.8398C41.7823 28.4589 42.7194 28.4599 42.7194 27.8398V25.589C42.7194 25.3302 42.5096 25.1205 42.2508 25.1205H38.8413C38.9332 23.6084 38.7529 21.8053 37.6115 20.8189C36.6314 19.9718 35.2871 19.6817 34.0156 20.0429C32.2052 20.5578 32.096 20.6268 30.0412 20.0429C28.7699 19.6815 27.4257 19.9716 26.4453 20.819C23.5177 23.3506 26.3231 32.5168 29.086 33.4082ZM18.5456 22.1611C18.5456 25.1596 23.0839 25.1605 23.0839 22.1611C23.0839 19.1627 18.5456 19.1616 18.5456 22.1611ZM19.0141 31.9847H23.6122C24.2313 31.9847 24.232 31.0476 23.6122 31.0476H19.0141C18.395 31.0476 18.3943 31.9847 19.0141 31.9847ZM18.5456 36.8966C18.5456 37.1554 18.7553 37.3651 19.0141 37.3651H26.431C26.6898 37.3651 26.8996 37.1554 26.8996 36.8966V33.8098C26.8996 33.551 26.6898 33.3412 26.431 33.3412H19.0141C18.7553 33.3412 18.5456 33.551 18.5456 33.8098V36.8966ZM37.374 47.725H26.6133C26.2478 47.725 25.9511 48.0224 25.9511 48.3872C25.9511 48.7527 26.2478 49.0494 26.6133 49.0494H37.374C37.7395 49.0494 38.0363 48.7527 38.0363 48.3872C38.0363 48.0224 37.7395 47.725 37.374 47.725ZM46.6804 40.456V39.2578H17.307V40.456C17.307 40.7915 17.58 41.0645 17.9155 41.0645H46.0718C46.4073 41.0645 46.6804 40.7915 46.6804 40.456Z" fill="white"/>
</g>
</g>
<defs>
<linearGradient id="paint0_linear_2050_599" x1="8.00003" y1="1.99927" x2="58.9094" y2="19.0575" gradientUnits="userSpaceOnUse">
<stop stop-color="#ABDDE5"/>
<stop offset="1" stop-color="#91C3CA"/>
</linearGradient>
<clipPath id="clip0_2050_599">
<rect width="31.9873" height="31.9873" fill="white" transform="translate(16 17.9993)"/>
</clipPath>
</defs>
</svg>
