<svg width="64" height="64" viewBox="0 0 64 64" fill="none" xmlns="http://www.w3.org/2000/svg">
<path d="M62.7354 31.9476C62.7354 15.1472 49.116 1.52783 32.3156 1.52783C15.5153 1.52783 1.89587 15.1472 1.89587 31.9476C1.89587 48.748 15.5153 62.3673 32.3156 62.3673C49.116 62.3673 62.7354 48.748 62.7354 31.9476Z" fill="url(#paint0_linear_2050_575)"/>
<g clip-path="url(#clip0_2050_575)">
<path d="M43.3658 18.6999C42.835 18.168 42.1291 17.875 41.3781 17.875H40.1316V19.125C40.1316 20.5035 39.0113 21.625 37.6343 21.625H26.3968C25.0198 21.625 23.8996 20.5035 23.8996 19.125V17.875H22.6489C21.1015 17.875 19.8413 19.1352 19.8395 20.6844L19.8125 45.1844C19.8116 45.9362 20.1035 46.6432 20.6342 47.1751C21.165 47.7071 21.8709 48 22.6219 48H41.3511C42.8984 48 44.1588 46.7397 44.1604 45.1906L44.1875 20.6906C44.1884 19.9388 43.8965 19.2318 43.3658 18.6999ZM32.3184 27.25H38.9717C39.4889 27.25 39.9081 27.6698 39.9081 28.1875C39.9081 28.7052 39.4889 29.125 38.9717 29.125H32.3184C31.8012 29.125 31.3819 28.7052 31.3819 28.1875C31.3819 27.6698 31.8012 27.25 32.3184 27.25ZM32.3184 33.5H38.9717C39.4889 33.5 39.9081 33.9198 39.9081 34.4375C39.9081 34.9552 39.4889 35.375 38.9717 35.375H32.3184C31.8012 35.375 31.3819 34.9552 31.3819 34.4375C31.3819 33.9198 31.8012 33.5 32.3184 33.5ZM32.3184 39.75H38.9984C39.5156 39.75 39.9349 40.1698 39.9349 40.6875C39.9349 41.2052 39.5156 41.625 38.9984 41.625H32.3184C31.8012 41.625 31.3819 41.2052 31.3819 40.6875C31.3819 40.1698 31.8012 39.75 32.3184 39.75ZM24.3394 27.287C24.7052 26.9209 25.2981 26.9209 25.6638 27.287L26.173 27.7968L28.3326 25.6348C28.6984 25.2687 29.2913 25.2686 29.6569 25.6348C30.0226 26.0009 30.0226 26.5945 29.6569 26.9606L26.8351 29.7855C26.6595 29.9613 26.4213 30.0601 26.1729 30.0601C25.9246 30.0601 25.6864 29.9614 25.5108 29.7855L24.3394 28.6128C23.9737 28.2467 23.9737 27.6531 24.3394 27.287ZM24.3394 34.0143C24.7052 33.6482 25.2981 33.6482 25.6638 34.0143L26.173 34.5241L28.3326 32.3621C28.6983 31.996 29.2913 31.996 29.6569 32.3621C30.0226 32.7281 30.0226 33.3218 29.6569 33.6879L26.8351 36.5128C26.6596 36.6886 26.4213 36.7874 26.1729 36.7874C25.9246 36.7874 25.6864 36.6887 25.5108 36.5128L24.3394 35.3401C23.9737 34.974 23.9737 34.3804 24.3394 34.0143ZM24.3394 40.2643C24.7052 39.8982 25.2981 39.8982 25.6638 40.2643L26.173 40.7741L28.3326 38.6121C28.6983 38.246 29.2913 38.246 29.6569 38.6121C30.0226 38.9781 30.0226 39.5718 29.6569 39.9379L26.8351 42.7628C26.6596 42.9386 26.4213 43.0374 26.1729 43.0374C25.9246 43.0374 25.6864 42.9387 25.5108 42.7628L24.3394 41.5901C23.9737 41.224 23.9737 40.6304 24.3394 40.2643Z" fill="white"/>
<path d="M25.7725 19.125C25.7725 19.4702 26.052 19.75 26.3968 19.75H37.6343C37.9791 19.75 38.2586 19.4702 38.2586 19.125V16.625C38.2586 16.2798 37.9791 16 37.6343 16H26.3968C26.052 16 25.7725 16.2798 25.7725 16.625V19.125Z" fill="white"/>
</g>
<defs>
<linearGradient id="paint0_linear_2050_575" x1="8.00006" y1="1.99952" x2="58.9094" y2="19.0577" gradientUnits="userSpaceOnUse">
<stop stop-color="#ABDDE5"/>
<stop offset="1" stop-color="#91C3CA"/>
</linearGradient>
<clipPath id="clip0_2050_575">
<rect width="32" height="32" fill="white" transform="translate(16 16)"/>
</clipPath>
</defs>
</svg>
