<svg width="64" height="64" viewBox="0 0 64 64" fill="none" xmlns="http://www.w3.org/2000/svg">
<mask id="mask0_2050_558" style="mask-type:luminance" maskUnits="userSpaceOnUse" x="0" y="0" width="64" height="64">
<path d="M63.9205 0.342529H0.710632V63.5524H63.9205V0.342529Z" fill="white"/>
</mask>
<g mask="url(#mask0_2050_558)">
<path d="M62.7353 31.9473C62.7353 15.147 49.1159 1.52759 32.3156 1.52759C15.5152 1.52759 1.89581 15.147 1.89581 31.9473C1.89581 48.7477 15.5152 62.3671 32.3156 62.3671C49.1159 62.3671 62.7353 48.7477 62.7353 31.9473Z" fill="url(#paint0_linear_2050_558)"/>
<path d="M62.7353 31.9473C62.7353 15.147 49.1159 1.52759 32.3156 1.52759C15.5152 1.52759 1.89581 15.147 1.89581 31.9473C1.89581 48.7477 15.5152 62.3671 32.3156 62.3671C49.1159 62.3671 62.7353 48.7477 62.7353 31.9473Z" fill="url(#paint1_linear_2050_558)"/>
</g>
<g clip-path="url(#clip0_2050_558)">
<path d="M41.3166 17.6977C40.5167 16.945 39.4932 16.5835 38.4615 16.5835C37.3002 16.5835 36.1275 17.0414 35.2531 17.9169L34.8778 18.2922L34.5026 17.9158C33.6282 17.0414 32.4554 16.5835 31.2941 16.5835C30.2625 16.5835 29.2389 16.945 28.4391 17.6977C26.68 19.3536 26.649 22.1237 28.345 23.8197L34.8778 30.3526L41.4107 23.8197C43.1067 22.1237 43.0757 19.3536 41.3166 17.6977Z" fill="white"/>
<path d="M47.7289 33.6792C46.7248 32.9987 45.5417 33.1915 44.494 33.7962C43.4463 34.4009 37.431 39.5441 37.431 39.5441L31.5099 39.5453C31.2345 39.5453 30.9361 39.2354 30.9361 38.9612C30.9361 38.6387 31.2172 38.3874 31.5099 38.3874H35.1326C36.4006 38.3874 37.8201 37.5612 37.8201 36.0924C37.8201 34.5318 36.4006 33.7973 35.1326 33.7973C32.9328 33.7973 32.5048 33.8065 32.5048 33.8065C31.6235 33.8065 30.7295 33.7537 30.041 33.3854C29.123 32.9149 28.065 32.6487 26.9358 32.6487C25.0401 32.6487 23.343 33.4049 22.1794 34.5972L16 40.6813L22.8851 47.5664L25.1801 45.2714H36.8011C37.9578 45.2714 39.0743 44.8468 39.9384 44.0791L47.8069 35.2524C48.2877 34.8255 48.2602 34.0406 47.7289 33.6792Z" fill="white"/>
</g>
<defs>
<linearGradient id="paint0_linear_2050_558" x1="32.3156" y1="1.52759" x2="107.238" y2="25.9385" gradientUnits="userSpaceOnUse">
<stop stop-color="#ABDDE5"/>
<stop offset="1" stop-color="#78A7AE"/>
</linearGradient>
<linearGradient id="paint1_linear_2050_558" x1="8" y1="1.99927" x2="58.9093" y2="19.0575" gradientUnits="userSpaceOnUse">
<stop stop-color="#ABDDE5"/>
<stop offset="1" stop-color="#91C3CA"/>
</linearGradient>
<clipPath id="clip0_2050_558">
<rect width="32.1484" height="32.1484" fill="white" transform="translate(16 16)"/>
</clipPath>
</defs>
</svg>
