<svg width="30" height="30" viewBox="0 0 30 30" fill="none" xmlns="http://www.w3.org/2000/svg">
<path fill-rule="evenodd" clip-rule="evenodd" d="M17.6021 18.8213C14.5557 21.2612 10.0965 21.0692 7.27252 18.2452C4.24249 15.2152 4.24249 10.3025 7.27252 7.27252C10.3025 4.24249 15.2152 4.24249 18.2452 7.27252C21.0692 10.0965 21.2612 14.5557 18.8213 17.6021L24.7475 23.5283C25.0842 23.865 25.0842 24.4108 24.7475 24.7475C24.4108 25.0842 23.865 25.0842 23.5283 24.7475L17.6021 18.8213ZM8.4917 17.026C6.13502 14.6693 6.13502 10.8484 8.4917 8.4917C10.8484 6.13502 14.6693 6.13502 17.026 8.4917C19.381 10.8467 19.3827 14.6637 17.0312 17.0208C17.0295 17.0225 17.0277 17.0243 17.026 17.026C17.0243 17.0277 17.0225 17.0294 17.0208 17.0312C14.6637 19.3827 10.8467 19.381 8.4917 17.026Z" fill="#94C5CC"/>
</svg>
