<svg width="56" height="56" viewBox="0 0 56 56" fill="none" xmlns="http://www.w3.org/2000/svg">
<rect width="56" height="56" rx="8" fill="#F6F9FF"/>
<g clip-path="url(#clip0_52_3630)">
<path d="M28.6667 23.3333C28.2987 23.3333 28 23.632 28 24C28 24.368 28.2987 24.6667 28.6667 24.6667C30.1373 24.6667 31.3333 25.8627 31.3333 27.3333C31.3333 27.7013 31.632 28 32 28C32.368 28 32.6667 27.7013 32.6667 27.3333C32.6667 25.128 30.872 23.3333 28.6667 23.3333Z" fill="#94C5CC"/>
<path d="M28.6667 20.6667C28.2987 20.6667 28 20.9653 28 21.3333C28 21.7013 28.2987 22 28.6667 22C31.608 22 34 24.392 34 27.3333C34 27.7013 34.2987 28 34.6667 28C35.0347 28 35.3333 27.7013 35.3333 27.3333C35.3333 23.6573 32.3427 20.6667 28.6667 20.6667Z" fill="#94C5CC"/>
<path d="M28.6667 18C28.2987 18 28 18.2987 28 18.6667C28 19.0347 28.2987 19.3333 28.6667 19.3333C33.0787 19.3333 36.6667 22.9213 36.6667 27.3333C36.6667 27.7013 36.9653 28 37.3333 28C37.7013 28 38 27.7013 38 27.3333C38 22.1867 33.8133 18 28.6667 18Z" fill="#94C5CC"/>
<path d="M36 32.6666C34.064 32.6666 32.22 32.2453 30.52 31.4146C30.3587 31.336 30.176 31.3266 30.0093 31.384C29.8427 31.4413 29.704 31.564 29.6267 31.724L28.18 34.7173C25.2547 33.156 22.8467 30.748 21.2853 27.8226L24.2773 26.3733C24.4373 26.296 24.5587 26.1586 24.6173 25.992C24.6747 25.824 24.664 25.64 24.5853 25.48C23.7547 23.78 23.3333 21.936 23.3333 20C23.3333 19.632 23.0347 19.3333 22.6667 19.3333H18.6667C18.2987 19.3333 18 19.632 18 20C18 29.9253 26.0747 38 36 38C36.368 38 36.6667 37.7013 36.6667 37.3333V33.3333C36.6667 32.9653 36.368 32.6666 36 32.6666ZM19.3467 20.6666H22.0147C22.092 22.3386 22.4587 23.944 23.108 25.4573L20.704 26.62C19.9067 24.7813 19.4293 22.7746 19.3467 20.6666ZM35.3333 36.652C33.2253 36.568 31.2187 36.092 29.38 35.2933L30.5427 32.8906C32.056 33.5413 33.6613 33.908 35.3333 33.984V36.652Z" fill="#94C5CC"/>
</g>
<defs>
<clipPath id="clip0_52_3630">
<rect width="20" height="20" fill="white" transform="translate(18 18)"/>
</clipPath>
</defs>
</svg>
