<svg width="20" height="20" viewBox="0 0 20 20" fill="none" xmlns="http://www.w3.org/2000/svg">
<g clip-path="url(#clip0_68_3286)">
<path d="M10.6667 5.33334C10.2987 5.33334 10 5.63201 10 6.00001C10 6.36801 10.2987 6.66668 10.6667 6.66668C12.1373 6.66668 13.3333 7.86268 13.3333 9.33334C13.3333 9.70134 13.632 10 14 10C14.368 10 14.6667 9.70134 14.6667 9.33334C14.6667 7.12801 12.872 5.33334 10.6667 5.33334Z" fill="#94C5CC"/>
<path d="M10.6667 2.66666C10.2987 2.66666 10 2.96532 10 3.33332C10 3.70132 10.2987 3.99999 10.6667 3.99999C13.608 3.99999 16 6.39199 16 9.33332C16 9.70132 16.2987 9.99999 16.6667 9.99999C17.0347 9.99999 17.3333 9.70132 17.3333 9.33332C17.3333 5.65732 14.3427 2.66666 10.6667 2.66666Z" fill="#94C5CC"/>
<path d="M10.6667 0C10.2987 0 10 0.298667 10 0.666667C10 1.03467 10.2987 1.33333 10.6667 1.33333C15.0787 1.33333 18.6667 4.92133 18.6667 9.33333C18.6667 9.70133 18.9653 10 19.3333 10C19.7013 10 20 9.70133 20 9.33333C20 4.18667 15.8133 0 10.6667 0Z" fill="#94C5CC"/>
<path d="M18 14.6667C16.064 14.6667 14.22 14.2453 12.52 13.4147C12.3587 13.336 12.176 13.3267 12.0093 13.384C11.8427 13.4413 11.704 13.564 11.6267 13.724L10.18 16.7173C7.25467 15.156 4.84667 12.748 3.28533 9.82268L6.27733 8.37334C6.43733 8.29601 6.55867 8.15868 6.61733 7.99201C6.67467 7.82401 6.664 7.64001 6.58533 7.48001C5.75467 5.78001 5.33333 3.93601 5.33333 2.00001C5.33333 1.63201 5.03467 1.33334 4.66667 1.33334H0.666667C0.298667 1.33334 0 1.63201 0 2.00001C0 11.9253 8.07467 20 18 20C18.368 20 18.6667 19.7013 18.6667 19.3333V15.3333C18.6667 14.9653 18.368 14.6667 18 14.6667ZM1.34667 2.66668H4.01467C4.092 4.33868 4.45867 5.94401 5.108 7.45734L2.704 8.62001C1.90667 6.78134 1.42933 4.77468 1.34667 2.66668ZM17.3333 18.652C15.2253 18.568 13.2187 18.092 11.38 17.2933L12.5427 14.8907C14.056 15.5413 15.6613 15.908 17.3333 15.984V18.652Z" fill="#94C5CC"/>
</g>
<defs>
<clipPath id="clip0_68_3286">
<rect width="20" height="20" fill="white"/>
</clipPath>
</defs>
</svg>
