<svg width="26" height="26" viewBox="0 0 26 26" fill="none" xmlns="http://www.w3.org/2000/svg">
<g clip-path="url(#clip0_2050_457)">
<path fill-rule="evenodd" clip-rule="evenodd" d="M21.3775 11.9378C21.6862 11.5185 21.93 11.1827 22.1109 10.9292C23.412 9.10919 23.9753 7.94676 23.8031 7.43976L23.7348 7.3206C23.6904 7.25018 23.5734 7.18409 23.386 7.12559C23.1975 7.06601 22.957 7.05626 22.6634 7.09526L19.4145 7.11909C19.3397 7.11151 19.2639 7.11368 19.1892 7.12559C19.1133 7.13751 19.0646 7.14943 19.0418 7.16026C19.0202 7.17326 19.0017 7.18301 18.9855 7.19059L18.9411 7.22635C18.9032 7.2491 18.862 7.29135 18.8176 7.35093C18.771 7.40943 18.7342 7.47876 18.7038 7.55893C18.3507 8.51552 17.9477 9.40602 17.497 10.2283C17.2186 10.719 16.9629 11.1448 16.73 11.5044C16.4971 11.8652 16.301 12.1295 16.1428 12.2996C15.9857 12.4697 15.8427 12.6062 15.7149 12.7091C15.586 12.812 15.4885 12.8554 15.4213 12.8402C15.3541 12.824 15.2891 12.8088 15.2296 12.7915C15.1245 12.721 15.04 12.6246 14.9761 12.5011C14.9111 12.3798 14.8688 12.2249 14.8461 12.0385C14.8233 11.8533 14.8103 11.6919 14.806 11.5575C14.8027 11.4232 14.8049 11.2336 14.8125 10.9877C14.8201 10.7429 14.8233 10.5771 14.8233 10.4894C14.8233 10.1893 14.8287 9.86211 14.8406 9.51002C14.8515 9.15902 14.8612 8.87952 14.8688 8.67368C14.8764 8.46893 14.8796 8.2501 14.8796 8.02151C14.8796 7.79185 14.8666 7.61201 14.8406 7.48093C14.8136 7.35093 14.7746 7.22418 14.7215 7.10176C14.6684 6.97934 14.5915 6.88401 14.4907 6.81684C14.3889 6.74968 14.2621 6.69551 14.1126 6.65651C13.714 6.56118 13.2059 6.51026 12.5895 6.50159C11.1909 6.48643 10.2917 6.58176 9.89412 6.78651C9.73595 6.87426 9.59295 6.99343 9.46512 7.14293C9.3297 7.31735 9.3102 7.41268 9.4077 7.42785C9.86054 7.49935 10.179 7.66943 10.3675 7.9381L10.4347 8.08001C10.4878 8.18402 10.5398 8.36602 10.5929 8.6271C10.6449 8.8871 10.6795 9.17635 10.6947 9.49269C10.7326 10.0712 10.7326 10.5652 10.6947 10.9769C10.6568 11.3874 10.6221 11.7081 10.5875 11.9378C10.5528 12.1664 10.503 12.3527 10.4358 12.4946C10.3675 12.6387 10.322 12.7254 10.2993 12.7568C10.2765 12.7882 10.2581 12.8077 10.243 12.8164C10.1455 12.8554 10.0436 12.8749 9.93854 12.8749C9.83345 12.8749 9.70562 12.8196 9.55503 12.708C9.40445 12.5986 9.24845 12.4459 9.08703 12.2519C8.92562 12.058 8.74253 11.7872 8.53995 11.4384C8.33736 11.0906 8.12611 10.6789 7.90836 10.2044L7.72744 9.85994C7.61586 9.63894 7.46094 9.31719 7.26594 8.8936C7.06986 8.47002 6.89652 8.06051 6.74702 7.6651C6.68636 7.49935 6.59536 7.3726 6.47619 7.28485L6.41877 7.2491C6.38194 7.21768 6.32127 7.18409 6.23894 7.14943C6.1566 7.11259 6.06994 7.08768 5.97894 7.07143L2.88817 7.09526C2.57184 7.09526 2.35842 7.17109 2.24467 7.3206L2.20026 7.3921C2.17751 7.43218 2.16667 7.49501 2.16667 7.58168C2.16667 7.66943 2.18942 7.7756 2.23492 7.90235C2.68559 9.01819 3.17634 10.0939 3.70609 11.1307C4.23693 12.1664 4.69735 13.0016 5.08843 13.6343C5.47952 14.268 5.8771 14.865 6.28444 15.4272C6.69069 15.9895 6.95936 16.348 7.09044 16.5062C7.22261 16.6655 7.32553 16.7835 7.40028 16.8626L7.68303 17.1486C7.86286 17.3382 8.12828 17.5657 8.4782 17.8301C8.82703 18.0955 9.21487 18.3566 9.64062 18.6133C10.0642 18.8711 10.5593 19.0802 11.1237 19.2427C11.687 19.4052 12.2363 19.4702 12.7704 19.4388H14.0671C14.3315 19.415 14.5308 19.3283 14.6651 19.1777L14.7106 19.1181C14.741 19.0716 14.7691 18.9979 14.7951 18.8993C14.8211 18.7996 14.8352 18.6913 14.8352 18.5732C14.8276 18.2331 14.8515 17.9254 14.9078 17.6524C14.9652 17.3794 15.0281 17.1746 15.0996 17.0349C15.1711 16.8973 15.2523 16.7803 15.3433 16.685C15.4332 16.5896 15.4961 16.5333 15.5351 16.5138C15.5719 16.4943 15.6022 16.4802 15.625 16.4715C15.8048 16.4087 16.0171 16.4694 16.262 16.6557C16.5068 16.842 16.7365 17.0706 16.9499 17.3436C17.1644 17.6177 17.4222 17.9232 17.7234 18.2634C18.0235 18.6046 18.2867 18.8571 18.5121 19.0239L18.7385 19.1658C18.888 19.2611 19.0841 19.3478 19.3257 19.4269C19.5651 19.506 19.7763 19.5266 19.9572 19.4865L22.8454 19.4388C23.1303 19.4388 23.3524 19.389 23.5106 19.2904C23.6677 19.1918 23.7619 19.0824 23.7923 18.9643C23.8226 18.8451 23.8237 18.7119 23.7977 18.5602C23.7717 18.4107 23.7446 18.3056 23.7197 18.2471C23.6926 18.1876 23.6677 18.1377 23.6449 18.0976C23.2701 17.387 22.5508 16.5116 21.4902 15.476L21.4674 15.4521L21.4566 15.4391L21.4457 15.4283H21.4338C20.9528 14.9451 20.6484 14.6212 20.5206 14.4544C20.2877 14.1391 20.2346 13.8174 20.3635 13.4935C20.4523 13.2475 20.7903 12.7286 21.3775 11.9378Z" fill="#93AED1" fill-opacity="0.5"/>
</g>
<defs>
<clipPath id="clip0_2050_457">
<rect width="26" height="26" fill="white"/>
</clipPath>
</defs>
</svg>
