<svg width="26" height="26" viewBox="0 0 26 26" fill="none" xmlns="http://www.w3.org/2000/svg">
<path fill-rule="evenodd" clip-rule="evenodd" d="M2.36618 23.1091C2.27755 23.4308 2.57057 23.7278 2.89346 23.6434L7.88474 22.3397C9.4603 23.1931 11.2342 23.6465 13.0402 23.6465H13.0456C18.9887 23.6465 23.8333 18.83 23.8333 12.9093C23.8333 10.0396 22.7132 7.34062 20.6768 5.31367C18.6404 3.28682 15.934 2.16669 13.0455 2.16669C7.1024 2.16669 2.25777 6.98324 2.25777 12.904C2.25709 14.7875 2.75425 16.6381 3.69934 18.2699L2.36618 23.1091ZM9.62645 7.76736C9.82465 7.77267 10.0444 7.78339 10.2535 8.24747C10.3921 8.55641 10.6256 9.12516 10.8159 9.58846C10.9639 9.94899 11.0858 10.2457 11.1162 10.3064C11.1859 10.445 11.2288 10.6051 11.1377 10.7917C11.1269 10.8137 11.1168 10.8348 11.107 10.8551C11.0339 11.0067 10.9819 11.1146 10.859 11.2558C10.8085 11.3138 10.7559 11.3774 10.7034 11.4408C10.6112 11.5522 10.5196 11.663 10.441 11.7412C10.3017 11.8798 10.1569 12.0293 10.3177 12.3066C10.4785 12.5839 11.0412 13.496 11.8719 14.2321C12.7649 15.0272 13.5415 15.3622 13.934 15.5316C14.0102 15.5645 14.072 15.5911 14.1173 15.6137C14.396 15.7523 14.5621 15.731 14.7228 15.5443C14.8837 15.3576 15.4195 14.7335 15.6071 14.4562C15.7893 14.1788 15.9769 14.2215 16.2342 14.3175C16.4914 14.4135 17.8633 15.0856 18.1419 15.2242C18.197 15.2517 18.2485 15.2764 18.2963 15.2993C18.4902 15.3922 18.6219 15.4554 18.6778 15.5496C18.7475 15.667 18.7475 16.2217 18.5171 16.8725C18.2813 17.5232 17.1452 18.1473 16.6307 18.1953C16.582 18.1999 16.5335 18.2057 16.4836 18.2118C16.0121 18.2688 15.4136 18.3412 13.2813 17.5019C10.6538 16.4686 8.91932 13.905 8.56866 13.3867C8.54098 13.3458 8.52192 13.3176 8.51172 13.304L8.50579 13.296C8.34626 13.0826 7.37023 11.7766 7.37023 10.4291C7.37023 9.13991 8.0053 8.46872 8.29497 8.16258C8.31333 8.14318 8.3303 8.12524 8.34563 8.10871C8.60282 7.83138 8.90299 7.76205 9.09053 7.76205C9.27815 7.76205 9.46569 7.76205 9.62645 7.76736Z" fill="#93AED1" fill-opacity="0.5"/>
<path d="M10.7093 8.0421L10.7096 8.04276C10.8516 8.35908 11.087 8.93233 11.275 9.39034L11.2784 9.39854C11.3526 9.5792 11.4196 9.74226 11.4718 9.86776C11.4979 9.93057 11.5198 9.98263 11.5367 10.0221C11.5558 10.0664 11.5633 10.0825 11.5631 10.0821M10.7093 8.0421L11.5871 11.0109C11.7741 10.6276 11.6686 10.2921 11.5631 10.0821M10.7093 8.0421C10.5805 7.75619 10.4156 7.53551 10.1866 7.40279M10.7093 8.0421L10.1866 7.40279M11.5631 10.0821L11.117 10.306L11.563 10.0819C11.5631 10.082 11.5631 10.082 11.5631 10.0821ZM7.93178 7.81893L7.93179 7.81893L7.93178 7.81893ZM7.93178 7.81893C7.6154 8.1533 6.87023 8.9446 6.87023 10.4291C6.87023 11.2149 7.15186 11.9599 7.43205 12.5136C7.71562 13.074 8.01993 13.4812 8.10519 13.5952L8.10524 13.5953L8.10528 13.5954L7.93178 7.81893ZM10.1866 7.40279C9.96746 7.27575 9.75239 7.27036 9.65055 7.26781M10.1866 7.40279L9.65055 7.26781M9.65055 7.26781C9.64735 7.26773 9.64427 7.26766 9.64129 7.26758M9.65055 7.26781L9.64129 7.26758M9.64129 7.26758C9.47264 7.26205 9.27899 7.26205 9.09583 7.26205H9.09053C8.78852 7.26205 8.3464 7.37258 7.97903 7.76871L9.64129 7.26758ZM8.16022 13.6753L8.15454 13.6669L8.12116 13.6177L8.11184 13.6043C8.11101 13.6031 8.11046 13.6023 8.11017 13.6019C8.11 13.6017 8.10991 13.6015 8.10991 13.6015L8.16022 13.6753ZM8.16022 13.6753C8.52102 14.2087 10.3259 16.8769 13.0981 17.9671L8.16022 13.6753ZM8.12288 21.9001C8.01138 21.8397 7.88108 21.8239 7.75838 21.856L2.87892 23.1305L4.18138 18.4027C4.21699 18.2734 4.1992 18.1353 4.13201 18.0193C3.231 16.4636 2.75712 14.6995 2.75777 12.9042V12.904C2.75777 7.26175 7.37616 2.66669 13.0455 2.66669C15.8019 2.66669 18.3814 3.73449 20.3241 5.66805C22.2661 7.6011 23.3333 10.1726 23.3333 12.9093C23.3333 18.5514 18.7149 23.1465 13.0456 23.1465H13.0402C11.3177 23.1465 9.62564 22.7141 8.12288 21.9001ZM11.5575 11.0721L11.587 11.011L19.1078 15.2944C19.0181 15.1434 18.8893 15.0522 18.7994 14.9973C18.7132 14.9446 18.6116 14.8959 18.5251 14.8545L18.5125 14.8484C18.4644 14.8254 18.416 14.8022 18.3647 14.7766L18.3647 14.7766C18.2231 14.7062 17.8085 14.5025 17.3969 14.3043C16.9996 14.1131 16.565 13.9073 16.409 13.8491L16.4089 13.849L16.4057 13.8478C16.2873 13.8036 16.0698 13.7225 15.834 13.7503C15.5437 13.7845 15.3362 13.9594 15.1915 14.1783C15.032 14.413 14.5689 14.9564 14.3747 15.1824C14.3645 15.1779 14.3529 15.1725 14.34 15.166C14.2822 15.1373 14.2096 15.106 14.1413 15.0765L14.1321 15.0725L14.1309 15.072C13.7554 14.91 13.0371 14.6001 12.2044 13.8587L12.2035 13.8579C11.478 13.215 10.9652 12.4176 10.7811 12.1082C10.785 12.1043 10.7891 12.1001 10.7936 12.0957L10.7939 12.0955C10.8897 12 10.9942 11.8736 11.0794 11.7707L11.0886 11.7595C11.142 11.6951 11.1904 11.6366 11.236 11.5842L11.2361 11.5841C11.4033 11.3921 11.4796 11.2338 11.5535 11.0803L11.5575 11.0721L11.5575 11.0721ZM14.1173 15.6137C14.396 15.7523 14.5621 15.731 14.7228 15.5443L14.1173 15.6137ZM16.5436 18.7082C16.5945 18.702 16.6362 18.697 16.6771 18.6931L13.0983 17.9672C14.1799 18.3929 14.8989 18.5982 15.4226 18.6861C15.9647 18.777 16.2856 18.7394 16.5436 18.7082Z" stroke="#93AED1" stroke-opacity="0.5" stroke-linejoin="round"/>
</svg>
