<svg width="26" height="26" viewBox="0 0 26 26" fill="none" xmlns="http://www.w3.org/2000/svg">
<path fill-rule="evenodd" clip-rule="evenodd" d="M7.57129 5.2981C11.1849 5.01538 14.8151 5.01538 18.4288 5.2981L20.8562 5.48801C22.2083 5.59379 23.3144 6.60713 23.5379 7.9448C24.0971 11.2918 24.0971 14.7083 23.5379 18.0553C23.3144 19.3929 22.2083 20.4063 20.8562 20.5121L18.4288 20.702C14.8151 20.9847 11.1849 20.9847 7.57129 20.702L5.14386 20.5121C3.79178 20.4063 2.68568 19.3929 2.46217 18.0553C1.90295 14.7083 1.90295 11.2918 2.46217 7.9448C2.68568 6.60713 3.79178 5.59379 5.14386 5.48801L7.57129 5.2981ZM10.8333 15.676V10.324C10.8333 10.0714 11.1089 9.91539 11.3255 10.0454L15.7855 12.7213C15.9959 12.8476 15.9959 13.1525 15.7855 13.2787L11.3255 15.9547C11.1089 16.0847 10.8333 15.9286 10.8333 15.676Z" fill="#93AED1" fill-opacity="0.5"/>
</svg>
